<svg id="Layer_1" data-name="Layer 1" xmlns="http://www.w3.org/2000/svg" viewBox="0 0 995.44 574.98"><path d="M990.42,756.33c-9.14-14.32-17.61-28.66-27.1-42.28-59-84.59-137.85-140.62-238.35-165.34-25.26-6.21-51-9.35-77-10.92-31.89-1.94-63.55-.07-95.15,4-2.23.29-4.5.26-8.08.45,2.07-2.89,3.31-4.76,4.7-6.52q65.89-83.93,131.72-167.92c3.88-5,8.11-6.71,14.13-6.17,34,3,67.21,9.4,99.37,20.93,73.86,26.5,135.62,70.29,185.61,130.75-3.12-2.9-6.21-5.84-9.37-8.71s-6.44-5.79-9.71-8.63C898.73,441.65,826.7,406.75,745.64,390.4c-12.53-2.53-25.28-4-37.94-6-4.39-.68-7.72.89-10.3,4.54Q657.74,445.1,618,501.19a45.85,45.85,0,0,0-2.43,4.58c2.8.33,4.84.72,6.89.79,53.9,1.69,106.23,11.29,156.13,32.06,99.86,41.57,169.67,113,210.23,213.12.38.93.71,1.87,1,2.81C990.05,755,990.17,755.49,990.42,756.33Z" transform="translate(-502.52 -213.78)"/><path d="M1011,754.65c2.79-6.65,5.12-13.52,8.42-19.9,29.25-56.67,65-108.18,116.89-146.88,46.56-34.7,98.49-57.34,154.87-70.32,29.63-6.82,59.72-9.85,90-10.93,1.42-.05,2.85-.26,5.2-.47-1.59-2.76-2.64-5-4-6.93q-38.68-55-77.37-110c-3.26-4.66-7.2-5.77-12.44-5.15a470.91,470.91,0,0,0-133,36.1A477.8,477.8,0,0,0,1023.25,510c2.59-3,5.14-6,7.78-8.9s5.38-5.92,8.16-8.79c52.25-53.85,113.08-93.88,185.56-115.1,27.23-8,54.91-13.51,83.33-14.93a12.11,12.11,0,0,1,11.16,5.05q66.85,85.09,133.86,170.06c.88,1.13,1.6,2.38,3,4.53-5.22-.47-9.44-.7-13.62-1.26a443.71,443.71,0,0,0-87.24-3.42c-150.62,9.48-262.71,81.4-339,210.69-1.41,2.39-2.76,4.81-4.14,7.22Z" transform="translate(-502.52 -213.78)"/><path d="M739.63,308.56c94.16-6.7,179.25,15,255,70.27,4.52,3.3,7.78,3.54,12.35.12,49-36.67,104.35-58.39,164.7-67.4a426.81,426.81,0,0,1,44.21-3.83c14.61-.64,29.28-.14,43.92-.14,0,.55.09,1.11.13,1.66-6.64,1.25-13.31,2.38-19.93,3.78-54.61,11.49-105.42,31.78-150.45,65.36-38,28.38-67.22,63.89-86.32,107.49-.47,1.06-1,2.1-1.56,3.12-.14.26-.49.4-1.21,1a34.73,34.73,0,0,1-2.15-3.65c-27.52-62.56-74.1-106.5-134.09-137.38a391.53,391.53,0,0,0-122.66-39.13C741.27,309.74,741,309.45,739.63,308.56Z" transform="translate(-502.52 -213.78)"/><path d="M989.51,788.76c-14.72-13.07-29.37-26.89-44.86-39.68-49.15-40.58-103.76-71-165.69-87.46a397.24,397.24,0,0,0-85.2-12.8c-63.85-2.74-125.12,9.62-185,30.56l-6.23,2.18c.89-2.45,1.31-3.95,2-5.35,6-13.19,12.1-26.33,17.95-39.58a12.62,12.62,0,0,1,9.51-7.88c7.42-1.61,14.8-3.47,22.63-5.32l.36,6.72c7.09-1.33,14-3,20.94-3.84,19.63-2.45,39.27-4.85,58.95-6.74,23.29-2.24,46.63-1.33,69.81,1.15,88.88,9.51,167.22,42.51,232,105.27a420.12,420.12,0,0,1,50.75,59.69C988.19,786.85,989,788,989.51,788.76Z" transform="translate(-502.52 -213.78)"/><path d="M1446.46,630.12c.23-6.71.25-6.77,6.59-5.31,5.52,1.26,11.23,2.11,16.41,4.21,3.43,1.39,7.29,4.07,8.89,7.23,6.68,13.21,12.61,26.81,18.74,40.3.51,1.1.49,2.44.87,4.48-8.48-2.82-16.14-5.44-23.84-7.92-35.6-11.47-72-19.5-109.21-22.94q-132.79-12.25-247.56,55.92c-35.73,21.17-68.12,46.66-98,75.43a9.27,9.27,0,0,1-4.41,2.68c6.91-8.82,13.61-17.83,20.78-26.44q89.19-107.18,226.46-132a445.77,445.77,0,0,1,95.44-7,450.51,450.51,0,0,1,81.6,10.24C1441.59,629.49,1444,629.74,1446.46,630.12Z" transform="translate(-502.52 -213.78)"/><path d="M1062.68,276.21a61.4,61.4,0,0,1-62,61.74c-34.37,0-62.26-27.62-62.36-61.68s28.19-62.94,62.31-62.49C1039.42,214.3,1063.09,245.21,1062.68,276.21Z" transform="translate(-502.52 -213.78)"/><path d="M989.72,773.35c-13.49-16.22-26.76-33.59-41.48-49.63C888,658.07,813.53,617.54,726.33,600.33c-37.44-7.39-75.27-8.84-113.36-5.64a583,583,0,0,0-86.65,13.95c-1.53.36-3.15.4-5.86.74,6.23-10.07,11.91-19.21,17.54-28.39a109.41,109.41,0,0,0,5.71-10c2.86-6,7.34-10,13.95-10.85,7.35-.94,14.77-1.31,22.64-2l-1.09,6.24c2.88,0,5.45.07,8,0,17.14-.59,34.3-2.13,51.4-1.66,93.06,2.52,178,28.92,251.6,87.45,41.28,32.84,73.1,73.64,98.07,119.92C989,771.45,989.5,772.85,989.72,773.35Z" transform="translate(-502.52 -213.78)"/><path d="M1422.35,564.24c-.48-2.2-.83-3.76-1.36-6.13,8.34.83,16.39.81,24,2.7a20.91,20.91,0,0,1,11.3,8.25c8.46,12.93,16,26.43,24.47,40.63-6.82-1.5-13-2.88-19.21-4.23-39.34-8.56-79.1-13.58-119.4-12.08-140,5.21-248.87,67.32-329.62,180.68-.48.68-1,1.36-1.45,2a8.76,8.76,0,0,1-1,.71,22,22,0,0,1,.86-2.44c39-73.38,93.8-131,169-168,40.2-19.82,82.72-32.09,126.95-38.87a466.39,466.39,0,0,1,83.64-4.75c9.31.25,18.59,1.27,27.89,1.88A27.82,27.82,0,0,0,1422.35,564.24Z" transform="translate(-502.52 -213.78)"/></svg>