<svg id="Layer_1" data-name="Layer 1" xmlns="http://www.w3.org/2000/svg" viewBox="0 0 384 469.75"><defs><style>.cls-1{fill:#fff;}</style></defs><path d="M581.65,488.11c.38-1.55.79-3.09,1.14-4.65,2-9,6.53-16.5,12.85-23.24,25-26.64,54.05-48.48,82.43-71.15,7.7-6.15,15.47-12.2,23.46-18.5-.74-1.42-1.37-2.72-2.09-4-42.75-74.82-8.91-170.63,71.43-202.18,83.5-32.79,176.36,18.61,192.24,106.46,1.09,6,1.71,12.06,2.54,18.09v15c-1.26,8-2.22,16-3.84,23.94a131.38,131.38,0,0,1-15.58,39.86c-4.82,8.29-13.46,11-21,6.59s-9.36-13.07-4.58-21.46a113.62,113.62,0,0,0,15.12-58.63C935.24,243.68,898.4,198.1,849,187c-60.4-13.57-119.1,21.81-134.92,81.34-16.86,63.42,26,129,91,139.13a112,112,0,0,0,64.74-8.6c4-1.81,8-2.79,12.32-1.52a14.67,14.67,0,0,1,2.16,27.4A136.47,136.47,0,0,1,843.57,437q-49.64,6.83-92.94-18.41c-.53-.31-1.1-.55-2-1-1.25,1.57-2.46,3.11-3.69,4.63-20.23,25.21-40.15,50.68-60.83,75.51C675.59,508,665.62,517,656,526.28c-6.17,5.92-13.91,9.13-22.4,10.44a15.69,15.69,0,0,0-2.43.8h-9a18.17,18.17,0,0,0-2.43-.8c-15.43-2.74-26.85-10.94-33.48-25.16-2.12-4.55-3.09-9.63-4.59-14.47Zm138.13-94.24c-11.68,9.21-22.86,18-34,26.84-24.15,19.17-48.49,38.13-69.56,60.83-6.14,6.62-6.36,15.76-.3,21.8a15,15,0,0,0,21.53-.16c10.19-10.28,20.73-20.31,29.95-31.42,19.11-23,37.46-46.73,56.11-70.16a21.14,21.14,0,0,0,1.31-2Z" transform="translate(-581.65 -154.45)"/><path class="cls-1" d="M626,583.77c1.5,4.83,2.47,9.91,4.59,14.46,6.63,14.22,18,22.43,33.48,25.17a18.17,18.17,0,0,1,2.43.8H626Z" transform="translate(-581.65 -154.45)"/><path d="M832.28,215c29.69,2.33,54.4,17.8,69.11,48.17,4,8.19,1.05,16.75-6.5,20.39-7.75,3.74-16.1.55-20.23-7.83-9.84-19.92-25.77-30.43-48.09-31.19-8.59-.3-15.09-6.94-14.91-15.09C811.84,220.73,818.83,214.74,832.28,215Z" transform="translate(-581.65 -154.45)"/><path class="cls-1" d="M764.13,480.54c1.82,2.08,3.36,3.84,5,5.74-.37.57-.78,1.33-1.31,2-18.65,23.43-37,47.11-56.12,70.16-9.21,11.11-19.75,21.14-29.94,31.41a15,15,0,0,1-21.53.17c-6.06-6-5.85-15.19.3-21.81,21.07-22.7,45.41-41.65,69.56-60.83C741.27,498.54,752.45,489.76,764.13,480.54Z" transform="translate(-581.65 -154.45)"/></svg>